<svg width="16" height="16" viewBox="0 0 16 16" fill="none" xmlns="http://www.w3.org/2000/svg">
<path d="M13.3241 7.53906V10.1922C13.3241 12.8454 12.2663 13.9091 9.60726 13.9091H6.42228C6.07956 13.9091 5.76635 13.8914 5.47681 13.85" stroke="#006400" stroke-width="0.8" stroke-linecap="round" stroke-linejoin="round"/>
<path d="M2.70544 10.08V7.53906" stroke="#006400" stroke-width="0.8" stroke-linecap="round" stroke-linejoin="round"/>
<path d="M8.01771 7.99991C9.09907 7.99991 9.8968 7.11949 9.79044 6.03812L9.3945 2.09082H6.63497L6.23907 6.03812C6.1327 7.11949 6.93635 7.99991 8.01771 7.99991Z" stroke="#006400" stroke-width="0.8" stroke-linecap="round" stroke-linejoin="round"/>
<path d="M11.7404 7.99991C12.934 7.99991 13.8086 7.03081 13.6904 5.84308L13.5249 4.21808C13.3122 2.68172 12.7213 2.09082 11.1731 2.09082H9.37085L9.78449 6.2331C9.89086 7.2081 10.7654 7.99991 11.7404 7.99991Z" stroke="#006400" stroke-width="0.8" stroke-linecap="round" stroke-linejoin="round"/>
<path d="M4.25951 7.99991C5.23451 7.99991 6.11496 7.2081 6.20951 6.2331L6.33952 4.92721L6.62315 2.09082H4.82088C3.2727 2.09082 2.6818 2.68172 2.46908 4.21808L2.3036 5.84308C2.18542 7.03081 3.06588 7.99991 4.25951 7.99991Z" stroke="#006400" stroke-width="0.8" stroke-linecap="round" stroke-linejoin="round"/>
<path d="M6.22727 12.1366C6.22727 12.5798 6.10317 12.9993 5.88454 13.3539C5.77226 13.543 5.63635 13.7143 5.47681 13.8502C5.45908 13.8739 5.44137 13.8916 5.41773 13.9093C5.00409 14.2816 4.46045 14.5002 3.86364 14.5002C3.14273 14.5002 2.49862 14.1752 2.07316 13.667C2.06135 13.6493 2.04365 13.6375 2.03183 13.6198C1.96092 13.537 1.89592 13.4484 1.84274 13.3539C1.6241 12.9993 1.5 12.5798 1.5 12.1366C1.5 11.392 1.84273 10.7243 2.38636 10.293C2.48682 10.2102 2.59317 10.1393 2.70544 10.0802C3.04817 9.88523 3.44409 9.77295 3.86364 9.77295C4.45455 9.77295 4.98635 9.98566 5.39999 10.3461C5.47089 10.3993 5.5359 10.4643 5.595 10.5293C5.985 10.9548 6.22727 11.5161 6.22727 12.1366Z" stroke="#006400" stroke-width="0.8" stroke-miterlimit="10" stroke-linecap="round" stroke-linejoin="round"/>
<path d="M4.74405 12.1245H2.98315" stroke="#006400" stroke-width="0.8" stroke-miterlimit="10" stroke-linecap="round" stroke-linejoin="round"/>
<path d="M3.86365 11.2617V13.0285" stroke="#006400" stroke-width="0.8" stroke-miterlimit="10" stroke-linecap="round" stroke-linejoin="round"/>
</svg>
