<svg width="24" height="24" viewBox="0 0 24 24" fill="none" xmlns="http://www.w3.org/2000/svg">
    <g clip-path="url(#clip0_50_5285)">
        <path d="M14.4998 12.9995C14.2031 12.9995 13.9131 12.9116 13.6664 12.7467C13.4198 12.5819 13.2275 12.3477 13.114 12.0736C13.0004 11.7995 12.9707 11.4979 13.0286 11.2069C13.0865 10.9159 13.2293 10.6487 13.4391 10.4389C13.6489 10.2291 13.9162 10.0862 14.2071 10.0284C14.4981 9.97048 14.7997 10.0002 15.0738 10.1137C15.3479 10.2273 15.5822 10.4195 15.747 10.6662C15.9118 10.9129 15.9998 11.2029 15.9998 11.4995C15.9998 11.8974 15.8417 12.2789 15.5604 12.5602C15.2791 12.8415 14.8976 12.9995 14.4998 12.9995ZM23.9248 18.1435C24.0496 18.8617 24.0158 19.5986 23.8259 20.3024C23.6359 21.0061 23.2944 21.6599 22.8252 22.2178C22.356 22.7757 21.7705 23.2242 21.1097 23.532C20.4489 23.8398 19.7287 23.9994 18.9998 23.9995H14.9998C14.7346 23.9995 14.4802 23.8942 14.2927 23.7066C14.1051 23.5191 13.9998 23.2648 13.9998 22.9995V20.7365C13.347 20.9087 12.6749 20.9971 11.9998 20.9995C11.3243 20.9961 10.652 20.9053 9.99978 20.7295V22.9995C9.99978 23.2648 9.89443 23.5191 9.70689 23.7066C9.51935 23.8942 9.265 23.9995 8.99978 23.9995H4.99979C4.27082 23.9994 3.5507 23.8398 2.88989 23.532C2.22909 23.2242 1.64357 22.7757 1.17437 22.2178C0.705169 21.6599 0.363633 21.0061 0.173691 20.3024C-0.016251 19.5986 -0.0500045 18.8617 0.0747952 18.1435L0.374795 16.4035C0.474553 15.8248 0.745389 15.2893 1.15238 14.8659C1.55937 14.4426 2.08384 14.1509 2.65818 14.0284C3.23251 13.906 3.83036 13.9584 4.37463 14.1789C4.91891 14.3994 5.38465 14.7779 5.71179 15.2655C6.97579 17.1235 9.40878 18.9995 11.9998 18.9995C15.1298 18.9995 18.2138 16.2205 19.1298 13.6235C19.2033 13.4283 19.3343 13.26 19.5056 13.1409C19.6768 13.0218 19.8802 12.9575 20.0888 12.9565L20.5208 12.9635C20.7144 12.9659 20.9066 12.9298 21.0861 12.8573C21.2656 12.7847 21.429 12.6772 21.5666 12.541C21.7042 12.4048 21.8134 12.2425 21.8877 12.0638C21.9621 11.885 22.0002 11.6932 21.9998 11.4995C21.9994 11.1488 21.8762 10.8093 21.6515 10.54C21.4267 10.2707 21.1148 10.0887 20.7698 10.0255C20.557 9.98695 20.3625 9.88043 20.2154 9.72195C20.0683 9.56347 19.9765 9.36158 19.9538 9.14654C19.7482 7.18183 18.821 5.36327 17.3516 4.04296C15.8822 2.72265 13.9752 1.99451 11.9998 1.99954C6.42279 1.99954 4.89179 5.62754 3.66179 8.54354C3.43779 9.07054 3.22679 9.57354 2.99979 10.0265C5.01058 9.92021 6.97128 9.36054 8.73521 8.38939C10.4991 7.41824 12.0206 6.06077 13.1858 4.41854C13.2621 4.31164 13.3587 4.22082 13.4701 4.15126C13.5815 4.0817 13.7055 4.03476 13.835 4.01313C13.9646 3.99149 14.0971 3.99558 14.225 4.02516C14.353 4.05475 14.4739 4.10924 14.5808 4.18554C14.6877 4.26184 14.7785 4.35844 14.8481 4.46984C14.9176 4.58124 14.9646 4.70525 14.9862 4.83478C15.0078 4.96432 15.0037 5.09685 14.9742 5.22481C14.9446 5.35277 14.8901 5.47364 14.8138 5.58054C13.5158 7.4207 11.8224 8.94701 9.85778 10.0475C10.1573 10.1211 10.4268 10.2851 10.6297 10.5173C10.8326 10.7495 10.959 11.0386 10.9917 11.3453C11.0244 11.6519 10.9618 11.9612 10.8124 12.2309C10.663 12.5007 10.4341 12.7179 10.1568 12.8529C9.87959 12.9879 9.56748 13.0342 9.26299 12.9854C8.9585 12.9367 8.67643 12.7952 8.45519 12.5804C8.23396 12.3656 8.08431 12.0878 8.02662 11.7849C7.96892 11.482 8.006 11.1686 8.13279 10.8875C5.83361 11.8185 3.34759 12.1954 0.875794 11.9875C0.669766 11.9599 0.477464 11.8688 0.325632 11.7268C0.1738 11.5848 0.0699855 11.3991 0.0286266 11.1954C-0.0127322 10.9917 0.0104205 10.7801 0.0948647 10.5902C0.179309 10.4002 0.320847 10.2413 0.499795 10.1355C1.10433 9.44965 1.55418 8.64169 1.81879 7.76654C3.12379 4.67354 5.09979 -0.000460274 11.9998 -0.000460274C14.3541 -0.00603775 16.6346 0.821588 18.4373 2.3359C20.2401 3.85022 21.4489 5.95355 21.8498 8.27354C22.4861 8.53958 23.0297 8.98772 23.4122 9.56167C23.7947 10.1356 23.9991 10.8098 23.9998 11.4995C23.9981 12.3305 23.6946 13.1326 23.1458 13.7565C23.1528 13.7825 23.1708 13.8035 23.1758 13.8315L23.9248 18.1435ZM7.99979 19.9395C6.41804 19.0919 5.06566 17.873 4.05879 16.3875C3.9731 16.258 3.85685 16.1516 3.7203 16.0777C3.58374 16.0037 3.43108 15.9645 3.27579 15.9635H3.25879C3.03985 15.9681 2.82931 16.0486 2.66315 16.1913C2.49699 16.3339 2.38552 16.5298 2.34779 16.7455L2.04779 18.4845C1.97273 18.9153 1.99274 19.3573 2.10643 19.7795C2.22012 20.2018 2.42473 20.594 2.70595 20.9289C2.98716 21.2637 3.33818 21.5331 3.73441 21.718C4.13065 21.9029 4.56252 21.999 4.99979 21.9995H7.99979V19.9395ZM21.9548 18.4845L21.3268 14.8715C21.1366 14.9169 20.9429 14.9457 20.7478 14.9575C19.7389 17.0864 18.075 18.8365 15.9998 19.9515V21.9995H18.9998C19.4372 21.9994 19.8693 21.9037 20.2658 21.719C20.6623 21.5343 21.0137 21.2651 21.2952 20.9304C21.5767 20.5956 21.7816 20.2033 21.8956 19.7809C22.0095 19.3586 22.0297 18.9165 21.9548 18.4855V18.4845Z" fill="#006400"/>
    </g>
    <defs>
        <clipPath id="clip0_50_5285">
            <rect width="24" height="24" fill="white"/>
        </clipPath>
    </defs>
</svg>
