<svg width="16" height="16" viewBox="0 0 16 16" fill="none" xmlns="http://www.w3.org/2000/svg">
    <path d="M14.6667 7.00016V10.3335C14.6667 12.6668 13.3334 13.6668 11.3334 13.6668H4.66671C2.66671 13.6668 1.33337 12.6668 1.33337 10.3335V5.66683C1.33337 3.3335 2.66671 2.3335 4.66671 2.3335H9.33337" stroke="#2F3036" stroke-width="1.5" stroke-miterlimit="10" stroke-linecap="round" stroke-linejoin="round"/>
    <path d="M4.66663 6L6.7533 7.66667C7.43996 8.21333 8.56663 8.21333 9.2533 7.66667L10.04 7.04" stroke="#2F3036" stroke-width="1.5" stroke-miterlimit="10" stroke-linecap="round" stroke-linejoin="round"/>
    <path d="M13 5.33333C13.9205 5.33333 14.6667 4.58714 14.6667 3.66667C14.6667 2.74619 13.9205 2 13 2C12.0796 2 11.3334 2.74619 11.3334 3.66667C11.3334 4.58714 12.0796 5.33333 13 5.33333Z" stroke="#2F3036" stroke-width="1.5" stroke-miterlimit="10" stroke-linecap="round" stroke-linejoin="round"/>
</svg>
