<svg width="28" height="28" viewBox="0 0 28 28" fill="none" xmlns="http://www.w3.org/2000/svg">
    <path d="M14.14 14.9102C14.0583 14.8986 13.9533 14.8986 13.86 14.9102C11.8067 14.8402 10.1733 13.1602 10.1733 11.0952C10.1733 8.98355 11.8767 7.26855 14 7.26855C16.1117 7.26855 17.8267 8.98355 17.8267 11.0952C17.815 13.1602 16.1933 14.8402 14.14 14.9102Z" stroke="#8F9098" stroke-width="1.5" stroke-linecap="round" stroke-linejoin="round"/>
    <path d="M21.8634 22.6098C19.7867 24.5115 17.0334 25.6665 14.0001 25.6665C10.9667 25.6665 8.21339 24.5115 6.13672 22.6098C6.25339 21.5132 6.95339 20.4398 8.20172 19.5998C11.3984 17.4765 16.6251 17.4765 19.7984 19.5998C21.0467 20.4398 21.7467 21.5132 21.8634 22.6098Z" stroke="#8F9098" stroke-width="1.5" stroke-linecap="round" stroke-linejoin="round"/>
    <path d="M14 25.6668C20.4434 25.6668 25.6667 20.4435 25.6667 14.0002C25.6667 7.55684 20.4434 2.3335 14 2.3335C7.55672 2.3335 2.33337 7.55684 2.33337 14.0002C2.33337 20.4435 7.55672 25.6668 14 25.6668Z" stroke="#8F9098" stroke-width="1.5" stroke-linecap="round" stroke-linejoin="round"/>
</svg>
