<svg width="28" height="28" viewBox="0 0 28 28" fill="none" xmlns="http://www.w3.org/2000/svg">
    <path d="M3.51172 13.0898V18.3282C3.51172 23.5665 5.61172 25.6665 10.8501 25.6665H17.1384C22.3767 25.6665 24.4767 23.5665 24.4767 18.3282V13.0898" stroke="#8F9098" stroke-width="1.5" stroke-linecap="round" stroke-linejoin="round"/>
    <path d="M14 14.0002C16.135 14.0002 17.71 12.2618 17.5 10.1268L16.73 2.3335H11.2817L10.5 10.1268C10.29 12.2618 11.865 14.0002 14 14.0002Z" stroke="#8F9098" stroke-width="1.5" stroke-linecap="round" stroke-linejoin="round"/>
    <path d="M21.3617 14.0002C23.7183 14.0002 25.445 12.0868 25.2117 9.74183L24.885 6.5335C24.465 3.50016 23.2983 2.3335 20.2417 2.3335H16.6833L17.5 10.5118C17.6983 12.4368 19.4367 14.0002 21.3617 14.0002Z" stroke="#8F9098" stroke-width="1.5" stroke-linecap="round" stroke-linejoin="round"/>
    <path d="M6.57999 14.0002C8.50499 14.0002 10.2433 12.4368 10.43 10.5118L10.6867 7.9335L11.2467 2.3335H7.68832C4.63165 2.3335 3.46499 3.50016 3.04498 6.5335L2.72998 9.74183C2.49665 12.0868 4.22332 14.0002 6.57999 14.0002Z" stroke="#8F9098" stroke-width="1.5" stroke-linecap="round" stroke-linejoin="round"/>
    <path d="M14 19.8335C12.0517 19.8335 11.0834 20.8018 11.0834 22.7502V25.6668H16.9167V22.7502C16.9167 20.8018 15.9484 19.8335 14 19.8335Z" stroke="#8F9098" stroke-width="1.5" stroke-linecap="round" stroke-linejoin="round"/>
</svg>
